<svg width="453" height="223" viewBox="0 0 453 223" fill="none" xmlns="http://www.w3.org/2000/svg">
<rect width="453" height="223" rx="111.5" fill="#FBFBFB"/>
<rect x="15.5" y="15.5" width="422" height="192" rx="96" stroke="#8467AA" stroke-width="25"/>
<path d="M68.29 78.8H77.406L81.62 125.068H81.792L86.264 78.8H96.584L101.056 125.068H101.228L105.442 78.8H113.612L107.506 139H95.724L91.424 98.408H91.252L86.952 139H74.396L68.29 78.8ZM142.391 139.86C137.747 139.86 134.192 138.541 131.727 135.904C129.262 133.267 128.029 129.54 128.029 124.724V93.076C128.029 88.26 129.262 84.5333 131.727 81.896C134.192 79.2587 137.747 77.94 142.391 77.94C147.035 77.94 150.59 79.2587 153.055 81.896C155.52 84.5333 156.753 88.26 156.753 93.076V124.724C156.753 129.54 155.52 133.267 153.055 135.904C150.59 138.541 147.035 139.86 142.391 139.86ZM142.391 131.26C145.659 131.26 147.293 129.282 147.293 125.326V92.474C147.293 88.518 145.659 86.54 142.391 86.54C139.123 86.54 137.489 88.518 137.489 92.474V125.326C137.489 129.282 139.123 131.26 142.391 131.26ZM173.471 78.8H187.489C192.362 78.8 195.917 79.9467 198.153 82.24C200.389 84.476 201.507 87.9447 201.507 92.646V96.344C201.507 102.593 199.443 106.549 195.315 108.212V108.384C197.608 109.072 199.213 110.477 200.131 112.598C201.105 114.719 201.593 117.557 201.593 121.112V131.69C201.593 133.41 201.65 134.815 201.765 135.904C201.879 136.936 202.166 137.968 202.625 139H192.993C192.649 138.025 192.419 137.108 192.305 136.248C192.19 135.388 192.133 133.84 192.133 131.604V120.596C192.133 117.844 191.674 115.923 190.757 114.834C189.897 113.745 188.377 113.2 186.199 113.2H182.931V139H173.471V78.8ZM186.371 104.6C188.263 104.6 189.667 104.113 190.585 103.138C191.559 102.163 192.047 100.529 192.047 98.236V93.592C192.047 91.4133 191.645 89.8367 190.843 88.862C190.097 87.8873 188.893 87.4 187.231 87.4H182.931V104.6H186.371ZM218.476 78.8H227.936V104.17L239.976 78.8H249.436L238.17 100.902L249.608 139H239.718L231.72 112.168L227.936 119.822V139H218.476V78.8ZM264.234 132.464C264.234 128.164 264.922 124.495 266.298 121.456C267.674 118.36 270.139 114.949 273.694 111.222C277.191 107.495 279.599 104.313 280.918 101.676C282.294 99.0387 282.982 96.2867 282.982 93.42C282.982 90.84 282.552 89.0627 281.692 88.088C280.889 87.056 279.685 86.54 278.08 86.54C274.812 86.54 273.178 88.518 273.178 92.474V98.924H264.234V93.076C264.234 88.2027 265.438 84.476 267.846 81.896C270.254 79.2587 273.751 77.94 278.338 77.94C282.924 77.94 286.422 79.2587 288.83 81.896C291.238 84.476 292.442 88.2027 292.442 93.076C292.442 96.7453 291.553 100.329 289.776 103.826C288.056 107.323 285.046 111.337 280.746 115.866C277.936 118.847 276.044 121.284 275.07 123.176C274.095 125.011 273.608 126.989 273.608 129.11V130.4H291.582V139H264.234V132.464ZM309.159 78.8H323.607C328.309 78.8 331.835 80.0613 334.185 82.584C336.536 85.1067 337.711 88.8047 337.711 93.678V124.122C337.711 128.995 336.536 132.693 334.185 135.216C331.835 137.739 328.309 139 323.607 139H309.159V78.8ZM323.435 130.4C324.983 130.4 326.159 129.941 326.961 129.024C327.821 128.107 328.251 126.616 328.251 124.552V93.248C328.251 91.184 327.821 89.6933 326.961 88.776C326.159 87.8587 324.983 87.4 323.435 87.4H318.619V130.4H323.435ZM368.091 139.86C363.447 139.86 359.892 138.541 357.427 135.904C354.961 133.267 353.729 129.54 353.729 124.724V93.076C353.729 88.26 354.961 84.5333 357.427 81.896C359.892 79.2587 363.447 77.94 368.091 77.94C372.735 77.94 376.289 79.2587 378.755 81.896C381.22 84.5333 382.453 88.26 382.453 93.076V124.724C382.453 129.54 381.22 133.267 378.755 135.904C376.289 138.541 372.735 139.86 368.091 139.86ZM368.091 131.26C371.359 131.26 372.993 129.282 372.993 125.326V92.474C372.993 88.518 371.359 86.54 368.091 86.54C364.823 86.54 363.189 88.518 363.189 92.474V125.326C363.189 129.282 364.823 131.26 368.091 131.26Z" fill="#EB363D"/>
<path d="M68.29 78.8V77.3H66.6302L66.7977 78.9514L68.29 78.8ZM77.406 78.8L78.8998 78.6639L78.7756 77.3H77.406V78.8ZM81.62 125.068L80.1262 125.204L80.2504 126.568H81.62V125.068ZM81.792 125.068V126.568H83.154L83.285 125.212L81.792 125.068ZM86.264 78.8V77.3H84.902L84.771 78.6557L86.264 78.8ZM96.584 78.8L98.077 78.6557L97.946 77.3H96.584V78.8ZM101.056 125.068L99.563 125.212L99.694 126.568H101.056V125.068ZM101.228 125.068V126.568H102.598L102.722 125.204L101.228 125.068ZM105.442 78.8V77.3H104.072L103.948 78.6639L105.442 78.8ZM113.612 78.8L115.104 78.9514L115.272 77.3H113.612V78.8ZM107.506 139V140.5H108.862L108.998 139.151L107.506 139ZM95.724 139L94.2323 139.158L94.3745 140.5H95.724V139ZM91.424 98.408L92.9157 98.25L92.7735 96.908H91.424V98.408ZM91.252 98.408V96.908H89.9025L89.7603 98.25L91.252 98.408ZM86.952 139V140.5H88.3015L88.4437 139.158L86.952 139ZM74.396 139L72.9037 139.151L73.0404 140.5H74.396V139ZM68.29 80.3H77.406V77.3H68.29V80.3ZM75.9122 78.9361L80.1262 125.204L83.1138 124.932L78.8998 78.6639L75.9122 78.9361ZM81.62 126.568H81.792V123.568H81.62V126.568ZM83.285 125.212L87.757 78.9443L84.771 78.6557L80.299 124.924L83.285 125.212ZM86.264 80.3H96.584V77.3H86.264V80.3ZM95.091 78.9443L99.563 125.212L102.549 124.924L98.077 78.6557L95.091 78.9443ZM101.056 126.568H101.228V123.568H101.056V126.568ZM102.722 125.204L106.936 78.9361L103.948 78.6639L99.7342 124.932L102.722 125.204ZM105.442 80.3H113.612V77.3H105.442V80.3ZM112.12 78.6486L106.014 138.849L108.998 139.151L115.104 78.9514L112.12 78.6486ZM107.506 137.5H95.724V140.5H107.506V137.5ZM97.2157 138.842L92.9157 98.25L89.9323 98.566L94.2323 139.158L97.2157 138.842ZM91.424 96.908H91.252V99.908H91.424V96.908ZM89.7603 98.25L85.4603 138.842L88.4437 139.158L92.7437 98.566L89.7603 98.25ZM86.952 137.5H74.396V140.5H86.952V137.5ZM75.8883 138.849L69.7823 78.6486L66.7977 78.9514L72.9037 139.151L75.8883 138.849ZM131.727 135.904L132.823 134.88L131.727 135.904ZM131.727 81.896L132.823 82.9203L131.727 81.896ZM153.055 81.896L151.959 82.9203L153.055 81.896ZM153.055 135.904L151.959 134.88L153.055 135.904ZM142.391 138.36C138.037 138.36 134.929 137.133 132.823 134.88L130.631 136.928C133.456 139.95 137.457 141.36 142.391 141.36V138.36ZM132.823 134.88C130.694 132.602 129.529 129.29 129.529 124.724H126.529C126.529 129.79 127.829 133.931 130.631 136.928L132.823 134.88ZM129.529 124.724V93.076H126.529V124.724H129.529ZM129.529 93.076C129.529 88.5104 130.694 85.1976 132.823 82.9203L130.631 80.8717C127.829 83.8691 126.529 88.0095 126.529 93.076H129.529ZM132.823 82.9203C134.929 80.6675 138.037 79.44 142.391 79.44V76.44C137.457 76.44 133.456 77.8498 130.631 80.8717L132.823 82.9203ZM142.391 79.44C146.745 79.44 149.853 80.6675 151.959 82.9203L154.151 80.8717C151.326 77.8498 147.325 76.44 142.391 76.44V79.44ZM151.959 82.9203C154.088 85.1976 155.253 88.5104 155.253 93.076H158.253C158.253 88.0095 156.953 83.8691 154.151 80.8717L151.959 82.9203ZM155.253 93.076V124.724H158.253V93.076H155.253ZM155.253 124.724C155.253 129.29 154.088 132.602 151.959 134.88L154.151 136.928C156.953 133.931 158.253 129.79 158.253 124.724H155.253ZM151.959 134.88C149.853 137.133 146.745 138.36 142.391 138.36V141.36C147.325 141.36 151.326 139.95 154.151 136.928L151.959 134.88ZM142.391 132.76C144.34 132.76 146.047 132.156 147.224 130.732C148.356 129.362 148.793 127.473 148.793 125.326H145.793C145.793 127.135 145.414 128.213 144.911 128.821C144.454 129.375 143.71 129.76 142.391 129.76V132.76ZM148.793 125.326V92.474H145.793V125.326H148.793ZM148.793 92.474C148.793 90.3271 148.356 88.4379 147.224 87.0682C146.047 85.6435 144.34 85.04 142.391 85.04V88.04C143.71 88.04 144.454 88.4255 144.911 88.9788C145.414 89.5871 145.793 90.6649 145.793 92.474H148.793ZM142.391 85.04C140.442 85.04 138.735 85.6435 137.558 87.0682C136.427 88.4379 135.989 90.3271 135.989 92.474H138.989C138.989 90.6649 139.369 89.5871 139.871 88.9788C140.328 88.4255 141.072 88.04 142.391 88.04V85.04ZM135.989 92.474V125.326H138.989V92.474H135.989ZM135.989 125.326C135.989 127.473 136.427 129.362 137.558 130.732C138.735 132.156 140.442 132.76 142.391 132.76V129.76C141.072 129.76 140.328 129.375 139.871 128.821C139.369 128.213 138.989 127.135 138.989 125.326H135.989ZM173.471 78.8V77.3H171.971V78.8H173.471ZM198.153 82.24L197.079 83.2871L197.085 83.2939L197.092 83.3007L198.153 82.24ZM195.315 108.212L194.754 106.821L193.815 107.199V108.212H195.315ZM195.315 108.384H193.815V109.5L194.884 109.821L195.315 108.384ZM200.131 112.598L198.754 113.193L198.761 113.209L198.768 113.224L200.131 112.598ZM201.765 135.904L200.273 136.061L200.274 136.07L201.765 135.904ZM202.625 139V140.5H204.933L203.995 138.391L202.625 139ZM192.993 139L191.578 139.499L191.931 140.5H192.993V139ZM190.757 114.834L189.579 115.763L189.594 115.782L189.609 115.8L190.757 114.834ZM182.931 113.2V111.7H181.431V113.2H182.931ZM182.931 139V140.5H184.431V139H182.931ZM173.471 139H171.971V140.5H173.471V139ZM190.585 103.138L189.524 102.077L189.508 102.093L189.492 102.11L190.585 103.138ZM190.843 88.862L189.651 89.7732L189.668 89.7947L189.685 89.8156L190.843 88.862ZM182.931 87.4V85.9H181.431V87.4H182.931ZM182.931 104.6H181.431V106.1H182.931V104.6ZM173.471 80.3H187.489V77.3H173.471V80.3ZM187.489 80.3C192.166 80.3 195.243 81.4044 197.079 83.2871L199.227 81.1928C196.59 78.4889 192.558 77.3 187.489 77.3V80.3ZM197.092 83.3007C198.935 85.1437 200.007 88.1505 200.007 92.646H203.007C203.007 87.7389 201.842 83.8083 199.213 81.1793L197.092 83.3007ZM200.007 92.646V96.344H203.007V92.646H200.007ZM200.007 96.344C200.007 99.3183 199.513 101.609 198.629 103.304C197.762 104.966 196.486 106.123 194.754 106.821L195.875 109.603C198.271 108.638 200.092 106.986 201.289 104.692C202.468 102.431 203.007 99.6191 203.007 96.344H200.007ZM193.815 108.212V108.384H196.815V108.212H193.815ZM194.884 109.821C196.771 110.387 198.019 111.495 198.754 113.193L201.507 112.003C200.407 109.459 198.445 107.757 195.746 106.947L194.884 109.821ZM198.768 113.224C199.617 115.074 200.093 117.671 200.093 121.112H203.093C203.093 117.443 202.593 114.365 201.494 111.972L198.768 113.224ZM200.093 121.112V131.69H203.093V121.112H200.093ZM200.093 131.69C200.093 133.437 200.151 134.899 200.273 136.061L203.256 135.747C203.149 134.73 203.093 133.383 203.093 131.69H200.093ZM200.274 136.07C200.407 137.268 200.738 138.449 201.254 139.609L203.995 138.391C203.594 137.487 203.352 136.604 203.256 135.738L200.274 136.07ZM202.625 137.5H192.993V140.5H202.625V137.5ZM194.407 138.501C194.091 137.606 193.89 136.79 193.792 136.05L190.818 136.446C190.948 137.426 191.206 138.445 191.578 139.499L194.407 138.501ZM193.792 136.05C193.692 135.301 193.633 133.845 193.633 131.604H190.633C190.633 133.835 190.688 135.475 190.818 136.446L193.792 136.05ZM193.633 131.604V120.596H190.633V131.604H193.633ZM193.633 120.596C193.633 117.775 193.182 115.386 191.904 113.868L189.609 115.8C190.166 116.461 190.633 117.913 190.633 120.596H193.633ZM191.934 113.905C190.659 112.289 188.573 111.7 186.199 111.7V114.7C188.182 114.7 189.135 115.2 189.579 115.763L191.934 113.905ZM186.199 111.7H182.931V114.7H186.199V111.7ZM181.431 113.2V139H184.431V113.2H181.431ZM182.931 137.5H173.471V140.5H182.931V137.5ZM174.971 139V78.8H171.971V139H174.971ZM186.371 106.1C188.502 106.1 190.375 105.549 191.677 104.166L189.492 102.11C188.959 102.676 188.024 103.1 186.371 103.1V106.1ZM191.645 104.199C193.039 102.805 193.547 100.677 193.547 98.236H190.547C190.547 100.381 190.08 101.522 189.524 102.077L191.645 104.199ZM193.547 98.236V93.592H190.547V98.236H193.547ZM193.547 93.592C193.547 91.2942 193.136 89.2869 192.001 87.9084L189.685 89.8156C190.155 90.3864 190.547 91.5324 190.547 93.592H193.547ZM192.034 87.9508C190.912 86.4833 189.182 85.9 187.231 85.9V88.9C188.604 88.9 189.283 89.2914 189.651 89.7732L192.034 87.9508ZM187.231 85.9H182.931V88.9H187.231V85.9ZM181.431 87.4V104.6H184.431V87.4H181.431ZM182.931 106.1H186.371V103.1H182.931V106.1ZM218.476 78.8V77.3H216.976V78.8H218.476ZM227.936 78.8H229.436V77.3H227.936V78.8ZM227.936 104.17H226.436L229.291 104.813L227.936 104.17ZM239.976 78.8V77.3H239.028L238.621 78.1569L239.976 78.8ZM249.436 78.8L250.773 79.4812L251.884 77.3H249.436V78.8ZM238.17 100.902L236.834 100.221L236.561 100.757L236.734 101.333L238.17 100.902ZM249.608 139V140.5H251.625L251.045 138.569L249.608 139ZM239.718 139L238.281 139.428L238.6 140.5H239.718V139ZM231.72 112.168L233.158 111.74L232.067 108.081L230.376 111.503L231.72 112.168ZM227.936 119.822L226.592 119.157L226.436 119.471V119.822H227.936ZM227.936 139V140.5H229.436V139H227.936ZM218.476 139H216.976V140.5H218.476V139ZM218.476 80.3H227.936V77.3H218.476V80.3ZM226.436 78.8V104.17H229.436V78.8H226.436ZM229.291 104.813L241.331 79.4431L238.621 78.1569L226.581 103.527L229.291 104.813ZM239.976 80.3H249.436V77.3H239.976V80.3ZM248.1 78.1188L236.834 100.221L239.507 101.583L250.773 79.4812L248.1 78.1188ZM236.734 101.333L248.172 139.431L251.045 138.569L239.607 100.471L236.734 101.333ZM249.608 137.5H239.718V140.5H249.608V137.5ZM241.156 138.572L233.158 111.74L230.283 112.596L238.281 139.428L241.156 138.572ZM230.376 111.503L226.592 119.157L229.281 120.487L233.065 112.833L230.376 111.503ZM226.436 119.822V139H229.436V119.822H226.436ZM227.936 137.5H218.476V140.5H227.936V137.5ZM219.976 139V78.8H216.976V139H219.976ZM266.298 121.456L267.664 122.075L267.668 122.065L266.298 121.456ZM273.694 111.222L274.779 112.257L274.787 112.248L273.694 111.222ZM280.918 101.676L279.588 100.982L279.582 100.994L279.576 101.005L280.918 101.676ZM281.692 88.088L280.508 89.0089L280.536 89.0456L280.567 89.0804L281.692 88.088ZM273.178 98.924V100.424H274.678V98.924H273.178ZM264.234 98.924H262.734V100.424H264.234V98.924ZM267.846 81.896L268.942 82.9195L268.948 82.9135L268.953 82.9074L267.846 81.896ZM288.83 81.896L287.722 82.9074L287.727 82.9135L287.733 82.9195L288.83 81.896ZM289.776 103.826L288.438 103.146L288.434 103.155L288.43 103.164L289.776 103.826ZM280.746 115.866L279.658 114.833L279.654 114.837L280.746 115.866ZM275.07 123.176L276.394 123.88L276.399 123.871L276.403 123.863L275.07 123.176ZM273.608 130.4H272.108V131.9H273.608V130.4ZM291.582 130.4H293.082V128.9H291.582V130.4ZM291.582 139V140.5H293.082V139H291.582ZM264.234 139H262.734V140.5H264.234V139ZM265.734 132.464C265.734 128.318 266.398 124.871 267.664 122.075L264.931 120.837C263.446 124.118 262.734 128.01 262.734 132.464H265.734ZM267.668 122.065C268.948 119.186 271.288 115.917 274.779 112.257L272.608 110.187C268.99 113.98 266.399 117.534 264.927 120.847L267.668 122.065ZM274.787 112.248C278.323 108.481 280.845 105.175 282.259 102.347L279.576 101.005C278.353 103.451 276.059 106.509 272.6 110.196L274.787 112.248ZM282.247 102.37C283.731 99.5267 284.482 96.5375 284.482 93.42H281.482C281.482 96.0358 280.856 98.5507 279.588 100.982L282.247 102.37ZM284.482 93.42C284.482 90.7827 284.065 88.5101 282.816 87.0956L280.567 89.0804C281.039 89.6152 281.482 90.8973 281.482 93.42H284.482ZM282.876 87.1671C281.724 85.6864 280.031 85.04 278.08 85.04V88.04C279.339 88.04 280.054 88.4256 280.508 89.0089L282.876 87.1671ZM278.08 85.04C276.131 85.04 274.424 85.6435 273.247 87.0682C272.115 88.4379 271.678 90.3271 271.678 92.474H274.678C274.678 90.6649 275.057 89.5871 275.56 88.9788C276.017 88.4255 276.76 88.04 278.08 88.04V85.04ZM271.678 92.474V98.924H274.678V92.474H271.678ZM273.178 97.424H264.234V100.424H273.178V97.424ZM265.734 98.924V93.076H262.734V98.924H265.734ZM265.734 93.076C265.734 88.4365 266.878 85.1307 268.942 82.9195L266.749 80.8725C263.997 83.8213 262.734 87.9688 262.734 93.076H265.734ZM268.953 82.9074C271.001 80.6643 274.045 79.44 278.338 79.44V76.44C273.457 76.44 269.506 77.853 266.738 80.8846L268.953 82.9074ZM278.338 79.44C282.63 79.44 285.674 80.6643 287.722 82.9074L289.937 80.8846C287.169 77.853 283.218 76.44 278.338 76.44V79.44ZM287.733 82.9195C289.797 85.1307 290.942 88.4365 290.942 93.076H293.942C293.942 87.9688 292.678 83.8213 289.926 80.8725L287.733 82.9195ZM290.942 93.076C290.942 96.493 290.116 99.8447 288.438 103.146L291.113 104.506C292.99 100.813 293.942 96.9977 293.942 93.076H290.942ZM288.43 103.164C286.804 106.469 283.908 110.356 279.658 114.833L281.833 116.899C286.183 112.317 289.307 108.178 291.122 104.488L288.43 103.164ZM279.654 114.837C276.82 117.845 274.81 120.405 273.736 122.489L276.403 123.863C277.279 122.163 279.053 119.85 281.837 116.895L279.654 114.837ZM273.745 122.472C272.653 124.528 272.108 126.749 272.108 129.11H275.108C275.108 127.229 275.537 125.493 276.394 123.88L273.745 122.472ZM272.108 129.11V130.4H275.108V129.11H272.108ZM273.608 131.9H291.582V128.9H273.608V131.9ZM290.082 130.4V139H293.082V130.4H290.082ZM291.582 137.5H264.234V140.5H291.582V137.5ZM265.734 139V132.464H262.734V139H265.734ZM309.159 78.8V77.3H307.659V78.8H309.159ZM334.185 82.584L333.088 83.6066L334.185 82.584ZM309.159 139H307.659V140.5H309.159V139ZM326.961 129.024L325.867 127.998L325.849 128.017L325.832 128.036L326.961 129.024ZM326.961 88.776L325.832 89.7638L325.849 89.7831L325.867 89.8019L326.961 88.776ZM318.619 87.4V85.9H317.119V87.4H318.619ZM318.619 130.4H317.119V131.9H318.619V130.4ZM309.159 80.3H323.607V77.3H309.159V80.3ZM323.607 80.3C328.049 80.3 331.112 81.4867 333.088 83.6066L335.283 81.5614C332.557 78.6359 328.568 77.3 323.607 77.3V80.3ZM333.088 83.6066C335.09 85.7549 336.211 89.0272 336.211 93.678H339.211C339.211 88.5821 337.982 84.4585 335.283 81.5614L333.088 83.6066ZM336.211 93.678V124.122H339.211V93.678H336.211ZM336.211 124.122C336.211 128.773 335.09 132.045 333.088 134.193L335.283 136.239C337.982 133.342 339.211 129.218 339.211 124.122H336.211ZM333.088 134.193C331.112 136.313 328.049 137.5 323.607 137.5V140.5C328.568 140.5 332.557 139.164 335.283 136.239L333.088 134.193ZM323.607 137.5H309.159V140.5H323.607V137.5ZM310.659 139V78.8H307.659V139H310.659ZM323.435 131.9C325.29 131.9 326.929 131.338 328.09 130.012L325.832 128.036C325.388 128.544 324.676 128.9 323.435 128.9V131.9ZM328.056 130.05C329.3 128.723 329.751 126.767 329.751 124.552H326.751C326.751 126.465 326.343 127.491 325.867 127.998L328.056 130.05ZM329.751 124.552V93.248H326.751V124.552H329.751ZM329.751 93.248C329.751 91.0334 329.3 89.0773 328.056 87.7501L325.867 89.8019C326.343 90.3094 326.751 91.3346 326.751 93.248H329.751ZM328.09 87.7882C326.929 86.4616 325.29 85.9 323.435 85.9V88.9C324.676 88.9 325.388 89.2557 325.832 89.7638L328.09 87.7882ZM323.435 85.9H318.619V88.9H323.435V85.9ZM317.119 87.4V130.4H320.119V87.4H317.119ZM318.619 131.9H323.435V128.9H318.619V131.9ZM357.427 135.904L358.522 134.88L357.427 135.904ZM357.427 81.896L358.522 82.9203L357.427 81.896ZM378.755 81.896L377.659 82.9203L378.755 81.896ZM378.755 135.904L377.659 134.88L378.755 135.904ZM368.091 138.36C363.736 138.36 360.628 137.133 358.522 134.88L356.331 136.928C359.156 139.95 363.157 141.36 368.091 141.36V138.36ZM358.522 134.88C356.394 132.602 355.229 129.29 355.229 124.724H352.229C352.229 129.79 353.529 133.931 356.331 136.928L358.522 134.88ZM355.229 124.724V93.076H352.229V124.724H355.229ZM355.229 93.076C355.229 88.5104 356.394 85.1976 358.522 82.9203L356.331 80.8717C353.529 83.8691 352.229 88.0095 352.229 93.076H355.229ZM358.522 82.9203C360.628 80.6675 363.736 79.44 368.091 79.44V76.44C363.157 76.44 359.156 77.8498 356.331 80.8717L358.522 82.9203ZM368.091 79.44C372.445 79.44 375.553 80.6675 377.659 82.9203L379.85 80.8717C377.026 77.8498 373.024 76.44 368.091 76.44V79.44ZM377.659 82.9203C379.788 85.1976 380.953 88.5104 380.953 93.076H383.953C383.953 88.0095 382.652 83.8691 379.85 80.8717L377.659 82.9203ZM380.953 93.076V124.724H383.953V93.076H380.953ZM380.953 124.724C380.953 129.29 379.788 132.602 377.659 134.88L379.85 136.928C382.652 133.931 383.953 129.79 383.953 124.724H380.953ZM377.659 134.88C375.553 137.133 372.445 138.36 368.091 138.36V141.36C373.024 141.36 377.026 139.95 379.85 136.928L377.659 134.88ZM368.091 132.76C370.039 132.76 371.747 132.156 372.924 130.732C374.055 129.362 374.493 127.473 374.493 125.326H371.493C371.493 127.135 371.113 128.213 370.611 128.821C370.154 129.375 369.41 129.76 368.091 129.76V132.76ZM374.493 125.326V92.474H371.493V125.326H374.493ZM374.493 92.474C374.493 90.3271 374.055 88.4379 372.924 87.0682C371.747 85.6435 370.039 85.04 368.091 85.04V88.04C369.41 88.04 370.154 88.4255 370.611 88.9788C371.113 89.5871 371.493 90.6649 371.493 92.474H374.493ZM368.091 85.04C366.142 85.04 364.435 85.6435 363.258 87.0682C362.126 88.4379 361.689 90.3271 361.689 92.474H364.689C364.689 90.6649 365.068 89.5871 365.571 88.9788C366.028 88.4255 366.771 88.04 368.091 88.04V85.04ZM361.689 92.474V125.326H364.689V92.474H361.689ZM361.689 125.326C361.689 127.473 362.126 129.362 363.258 130.732C364.435 132.156 366.142 132.76 368.091 132.76V129.76C366.771 129.76 366.028 129.375 365.571 128.821C365.068 128.213 364.689 127.135 364.689 125.326H361.689Z" fill="#EB363D"/>
</svg>
