<svg width="559" height="217" viewBox="0 0 559 217" fill="none" xmlns="http://www.w3.org/2000/svg">
<rect width="559" height="217" rx="108.5" fill="#FBFBFB"/>
<rect x="12.5" y="12.5" width="534" height="192" rx="96" stroke="#8467AA" stroke-width="25"/>
<path d="M67.526 75.8H81.802C86.6753 75.8 90.23 76.9467 92.466 79.24C94.702 81.476 95.82 84.9447 95.82 89.646V92.054C95.82 95.15 95.304 97.6727 94.272 99.622C93.2973 101.571 91.778 102.976 89.714 103.836V104.008C94.4153 105.613 96.766 109.799 96.766 116.564V121.724C96.766 126.368 95.5333 129.923 93.068 132.388C90.66 134.796 87.1053 136 82.404 136H67.526V75.8ZM80.684 100.31C82.576 100.31 83.9807 99.8227 84.898 98.848C85.8727 97.8733 86.36 96.2393 86.36 93.946V90.592C86.36 88.4133 85.9587 86.8367 85.156 85.862C84.4107 84.8873 83.2067 84.4 81.544 84.4H76.986V100.31H80.684ZM82.404 127.4C84.0667 127.4 85.2993 126.97 86.102 126.11C86.9047 125.193 87.306 123.645 87.306 121.466V116.22C87.306 113.468 86.8187 111.576 85.844 110.544C84.9267 109.455 83.3787 108.91 81.2 108.91H76.986V127.4H82.404ZM119.958 110.372L108.52 75.8H118.582L125.032 97.902H125.204L131.654 75.8H140.856L129.418 110.372V136H119.958V110.372ZM167.342 136.86C162.755 136.86 159.258 135.57 156.85 132.99C154.442 130.353 153.238 126.597 153.238 121.724V90.076C153.238 85.2027 154.442 81.476 156.85 78.896C159.258 76.2587 162.755 74.94 167.342 74.94C171.928 74.94 175.426 76.2587 177.834 78.896C180.242 81.476 181.446 85.2027 181.446 90.076V95.236H172.502V89.474C172.502 85.518 170.868 83.54 167.6 83.54C164.332 83.54 162.698 85.518 162.698 89.474V122.412C162.698 126.311 164.332 128.26 167.6 128.26C170.868 128.26 172.502 126.311 172.502 122.412V110.63H167.772V102.03H181.446V121.724C181.446 126.597 180.242 130.353 177.834 132.99C175.426 135.57 171.928 136.86 167.342 136.86ZM211.256 136.86C206.669 136.86 203.172 135.57 200.764 132.99C198.356 130.353 197.152 126.597 197.152 121.724V90.076C197.152 85.2027 198.356 81.476 200.764 78.896C203.172 76.2587 206.669 74.94 211.256 74.94C215.842 74.94 219.34 76.2587 221.748 78.896C224.156 81.476 225.36 85.2027 225.36 90.076V95.236H216.416V89.474C216.416 85.518 214.782 83.54 211.514 83.54C208.246 83.54 206.612 85.518 206.612 89.474V122.412C206.612 126.311 208.246 128.26 211.514 128.26C214.782 128.26 216.416 126.311 216.416 122.412V110.63H211.686V102.03H225.36V121.724C225.36 126.597 224.156 130.353 221.748 132.99C219.34 135.57 215.842 136.86 211.256 136.86ZM241.753 75.8H256.029C260.903 75.8 264.457 76.9467 266.693 79.24C268.929 81.476 270.047 84.9447 270.047 89.646V92.054C270.047 95.15 269.531 97.6727 268.499 99.622C267.525 101.571 266.005 102.976 263.941 103.836V104.008C268.643 105.613 270.993 109.799 270.993 116.564V121.724C270.993 126.368 269.761 129.923 267.295 132.388C264.887 134.796 261.333 136 256.631 136H241.753V75.8ZM254.911 100.31C256.803 100.31 258.208 99.8227 259.125 98.848C260.1 97.8733 260.587 96.2393 260.587 93.946V90.592C260.587 88.4133 260.186 86.8367 259.383 85.862C258.638 84.8873 257.434 84.4 255.771 84.4H251.213V100.31H254.911ZM256.631 127.4C258.294 127.4 259.527 126.97 260.329 126.11C261.132 125.193 261.533 123.645 261.533 121.466V116.22C261.533 113.468 261.046 111.576 260.071 110.544C259.154 109.455 257.606 108.91 255.427 108.91H251.213V127.4H256.631ZM294.153 75.8H306.967L316.771 136H307.311L305.591 124.046V124.218H294.841L293.121 136H284.349L294.153 75.8ZM304.473 116.048L300.259 86.292H300.087L295.959 116.048H304.473ZM330.124 127.572L347.668 84.4H330.984V75.8H357.816V84.228L340.272 127.4H357.816V136H330.124V127.572ZM380.805 75.8H393.619L403.423 136H393.963L392.243 124.046V124.218H381.493L379.773 136H371.001L380.805 75.8ZM391.125 116.048L386.911 86.292H386.739L382.611 116.048H391.125ZM426.062 75.8H438.876L448.68 136H439.22L437.5 124.046V124.218H426.75L425.03 136H416.258L426.062 75.8ZM436.382 116.048L432.168 86.292H431.996L427.868 116.048H436.382ZM463.59 75.8H477.608C482.481 75.8 486.036 76.9467 488.272 79.24C490.508 81.476 491.626 84.9447 491.626 89.646V93.344C491.626 99.5933 489.562 103.549 485.434 105.212V105.384C487.727 106.072 489.332 107.477 490.25 109.598C491.224 111.719 491.712 114.557 491.712 118.112V128.69C491.712 130.41 491.769 131.815 491.884 132.904C491.998 133.936 492.285 134.968 492.744 136H483.112C482.768 135.025 482.538 134.108 482.424 133.248C482.309 132.388 482.252 130.84 482.252 128.604V117.596C482.252 114.844 481.793 112.923 480.876 111.834C480.016 110.745 478.496 110.2 476.318 110.2H473.05V136H463.59V75.8ZM476.49 101.6C478.382 101.6 479.786 101.113 480.704 100.138C481.678 99.1633 482.166 97.5293 482.166 95.236V90.592C482.166 88.4133 481.764 86.8367 480.962 85.862C480.216 84.8873 479.012 84.4 477.35 84.4H473.05V101.6H476.49Z" fill="#EB363D"/>
<path d="M67.526 75.8V74.3H66.026V75.8H67.526ZM92.466 79.24L91.392 80.2871L91.3986 80.2939L91.4053 80.3007L92.466 79.24ZM94.272 99.622L92.9463 98.9202L92.9382 98.9356L92.9304 98.9512L94.272 99.622ZM89.714 103.836L89.1371 102.451L88.214 102.836V103.836H89.714ZM89.714 104.008H88.214V105.081L89.2293 105.428L89.714 104.008ZM93.068 132.388L94.1287 133.449L93.068 132.388ZM67.526 136H66.026V137.5H67.526V136ZM84.898 98.848L83.8373 97.7873L83.8213 97.8034L83.8057 97.82L84.898 98.848ZM85.156 85.862L83.9645 86.7732L83.9809 86.7947L83.9981 86.8156L85.156 85.862ZM76.986 84.4V82.9H75.486V84.4H76.986ZM76.986 100.31H75.486V101.81H76.986V100.31ZM86.102 126.11L87.1986 127.133L87.215 127.116L87.2309 127.098L86.102 126.11ZM85.844 110.544L84.6966 111.51L84.7241 111.543L84.7535 111.574L85.844 110.544ZM76.986 108.91V107.41H75.486V108.91H76.986ZM76.986 127.4H75.486V128.9H76.986V127.4ZM67.526 77.3H81.802V74.3H67.526V77.3ZM81.802 77.3C86.479 77.3 89.5564 78.4044 91.392 80.2871L93.54 78.1928C90.9036 75.4889 86.8717 74.3 81.802 74.3V77.3ZM91.4053 80.3007C93.2484 82.1437 94.32 85.1505 94.32 89.646H97.32C97.32 84.7389 96.1556 80.8083 93.5267 78.1793L91.4053 80.3007ZM94.32 89.646V92.054H97.32V89.646H94.32ZM94.32 92.054C94.32 94.9984 93.827 97.2566 92.9463 98.9202L95.5977 100.324C96.781 98.0887 97.32 95.3016 97.32 92.054H94.32ZM92.9304 98.9512C92.1212 100.569 90.8782 101.726 89.1371 102.451L90.2909 105.221C92.6778 104.226 94.4735 102.573 95.6136 100.293L92.9304 98.9512ZM88.214 103.836V104.008H91.214V103.836H88.214ZM89.2293 105.428C91.244 106.115 92.7074 107.327 93.6952 109.086C94.7034 110.881 95.266 113.339 95.266 116.564H98.266C98.266 113.024 97.6533 110.007 96.3108 107.616C94.9479 105.19 92.8853 103.506 90.1987 102.588L89.2293 105.428ZM95.266 116.564V121.724H98.266V116.564H95.266ZM95.266 121.724C95.266 126.107 94.1077 129.227 92.0073 131.327L94.1287 133.449C96.959 130.618 98.266 126.629 98.266 121.724H95.266ZM92.0073 131.327C89.9737 133.361 86.862 134.5 82.404 134.5V137.5C87.3487 137.5 91.3463 136.231 94.1287 133.449L92.0073 131.327ZM82.404 134.5H67.526V137.5H82.404V134.5ZM69.026 136V75.8H66.026V136H69.026ZM80.684 101.81C82.815 101.81 84.6887 101.259 85.9903 99.876L83.8057 97.82C83.2726 98.3863 82.337 98.81 80.684 98.81V101.81ZM85.9587 99.9087C87.3523 98.5151 87.86 96.3873 87.86 93.946H84.86C84.86 96.0914 84.3931 97.2316 83.8373 97.7873L85.9587 99.9087ZM87.86 93.946V90.592H84.86V93.946H87.86ZM87.86 90.592C87.86 88.2942 87.4491 86.2869 86.3139 84.9084L83.9981 86.8156C84.4682 87.3864 84.86 88.5324 84.86 90.592H87.86ZM86.3475 84.9508C85.2253 83.4833 83.4956 82.9 81.544 82.9V85.9C82.9177 85.9 83.596 86.2914 83.9645 86.7732L86.3475 84.9508ZM81.544 82.9H76.986V85.9H81.544V82.9ZM75.486 84.4V100.31H78.486V84.4H75.486ZM76.986 101.81H80.684V98.81H76.986V101.81ZM82.404 128.9C84.3067 128.9 86.0112 128.406 87.1986 127.133L85.0054 125.087C84.5874 125.534 83.8266 125.9 82.404 125.9V128.9ZM87.2309 127.098C88.4004 125.761 88.806 123.751 88.806 121.466H85.806C85.806 123.539 85.409 124.624 84.9731 125.122L87.2309 127.098ZM88.806 121.466V116.22H85.806V121.466H88.806ZM88.806 116.22C88.806 113.399 88.3287 110.99 86.9345 109.514L84.7535 111.574C85.3086 112.162 85.806 113.537 85.806 116.22H88.806ZM86.9914 109.578C85.6656 108.003 83.5849 107.41 81.2 107.41V110.41C83.1725 110.41 84.1877 110.906 84.6966 111.51L86.9914 109.578ZM81.2 107.41H76.986V110.41H81.2V107.41ZM75.486 108.91V127.4H78.486V108.91H75.486ZM76.986 128.9H82.404V125.9H76.986V128.9ZM119.958 110.372H121.458V110.13L121.382 109.901L119.958 110.372ZM108.52 75.8V74.3H106.444L107.096 76.2711L108.52 75.8ZM118.582 75.8L120.022 75.3798L119.707 74.3H118.582V75.8ZM125.032 97.902L123.592 98.3222L123.907 99.402H125.032V97.902ZM125.204 97.902V99.402H126.329L126.644 98.3222L125.204 97.902ZM131.654 75.8V74.3H130.529L130.214 75.3798L131.654 75.8ZM140.856 75.8L142.28 76.2711L142.932 74.3H140.856V75.8ZM129.418 110.372L127.994 109.901L127.918 110.13V110.372H129.418ZM129.418 136V137.5H130.918V136H129.418ZM119.958 136H118.458V137.5H119.958V136ZM121.382 109.901L109.944 75.3288L107.096 76.2711L118.534 110.843L121.382 109.901ZM108.52 77.3H118.582V74.3H108.52V77.3ZM117.142 76.2202L123.592 98.3222L126.472 97.4818L120.022 75.3798L117.142 76.2202ZM125.032 99.402H125.204V96.402H125.032V99.402ZM126.644 98.3222L133.094 76.2202L130.214 75.3798L123.764 97.4818L126.644 98.3222ZM131.654 77.3H140.856V74.3H131.654V77.3ZM139.432 75.3288L127.994 109.901L130.842 110.843L142.28 76.2711L139.432 75.3288ZM127.918 110.372V136H130.918V110.372H127.918ZM129.418 134.5H119.958V137.5H129.418V134.5ZM121.458 136V110.372H118.458V136H121.458ZM156.85 132.99L155.742 134.001L155.748 134.007L155.753 134.013L156.85 132.99ZM156.85 78.896L157.946 79.9195L157.952 79.9135L157.957 79.9074L156.85 78.896ZM177.834 78.896L176.726 79.9074L176.732 79.9135L176.737 79.9195L177.834 78.896ZM181.446 95.236V96.736H182.946V95.236H181.446ZM172.502 95.236H171.002V96.736H172.502V95.236ZM172.502 110.63H174.002V109.13H172.502V110.63ZM167.772 110.63H166.272V112.13H167.772V110.63ZM167.772 102.03V100.53H166.272V102.03H167.772ZM181.446 102.03H182.946V100.53H181.446V102.03ZM177.834 132.99L178.93 134.013L178.936 134.007L178.941 134.001L177.834 132.99ZM167.342 135.36C163.04 135.36 159.992 134.158 157.946 131.967L155.753 134.013C158.524 136.982 162.471 138.36 167.342 138.36V135.36ZM157.957 131.979C155.882 129.705 154.738 126.361 154.738 121.724H151.738C151.738 126.834 153.002 131 155.742 134.001L157.957 131.979ZM154.738 121.724V90.076H151.738V121.724H154.738ZM154.738 90.076C154.738 85.4365 155.883 82.1307 157.946 79.9195L155.753 77.8725C153.001 80.8213 151.738 84.9688 151.738 90.076H154.738ZM157.957 79.9074C160.006 77.6643 163.049 76.44 167.342 76.44V73.44C162.461 73.44 158.51 74.853 155.742 77.8846L157.957 79.9074ZM167.342 76.44C171.634 76.44 174.678 77.6643 176.726 79.9074L178.941 77.8846C176.174 74.853 172.223 73.44 167.342 73.44V76.44ZM176.737 79.9195C178.801 82.1307 179.946 85.4365 179.946 90.076H182.946C182.946 84.9688 181.683 80.8213 178.93 77.8725L176.737 79.9195ZM179.946 90.076V95.236H182.946V90.076H179.946ZM181.446 93.736H172.502V96.736H181.446V93.736ZM174.002 95.236V89.474H171.002V95.236H174.002ZM174.002 89.474C174.002 87.3271 173.564 85.4379 172.433 84.0682C171.256 82.6435 169.548 82.04 167.6 82.04V85.04C168.919 85.04 169.663 85.4255 170.12 85.9788C170.622 86.5871 171.002 87.6649 171.002 89.474H174.002ZM167.6 82.04C165.651 82.04 163.944 82.6435 162.767 84.0682C161.635 85.4379 161.198 87.3271 161.198 89.474H164.198C164.198 87.6649 164.577 86.5871 165.08 85.9788C165.537 85.4255 166.28 85.04 167.6 85.04V82.04ZM161.198 89.474V122.412H164.198V89.474H161.198ZM161.198 122.412C161.198 124.534 161.637 126.406 162.774 127.762C163.953 129.168 165.658 129.76 167.6 129.76V126.76C166.273 126.76 165.528 126.377 165.073 125.834C164.576 125.241 164.198 124.188 164.198 122.412H161.198ZM167.6 129.76C169.541 129.76 171.247 129.168 172.426 127.762C173.563 126.406 174.002 124.534 174.002 122.412H171.002C171.002 124.188 170.624 125.241 170.127 125.834C169.672 126.377 168.926 126.76 167.6 126.76V129.76ZM174.002 122.412V110.63H171.002V122.412H174.002ZM172.502 109.13H167.772V112.13H172.502V109.13ZM169.272 110.63V102.03H166.272V110.63H169.272ZM167.772 103.53H181.446V100.53H167.772V103.53ZM179.946 102.03V121.724H182.946V102.03H179.946ZM179.946 121.724C179.946 126.361 178.802 129.705 176.726 131.979L178.941 134.001C181.682 131 182.946 126.834 182.946 121.724H179.946ZM176.737 131.967C174.692 134.158 171.644 135.36 167.342 135.36V138.36C172.213 138.36 176.16 136.982 178.93 134.013L176.737 131.967ZM200.764 132.99L199.656 134.001L199.661 134.007L199.667 134.013L200.764 132.99ZM200.764 78.896L201.86 79.9195L201.866 79.9135L201.871 79.9074L200.764 78.896ZM221.748 78.896L220.64 79.9074L220.645 79.9135L220.651 79.9195L221.748 78.896ZM225.36 95.236V96.736H226.86V95.236H225.36ZM216.416 95.236H214.916V96.736H216.416V95.236ZM216.416 110.63H217.916V109.13H216.416V110.63ZM211.686 110.63H210.186V112.13H211.686V110.63ZM211.686 102.03V100.53H210.186V102.03H211.686ZM225.36 102.03H226.86V100.53H225.36V102.03ZM221.748 132.99L222.844 134.013L222.85 134.007L222.855 134.001L221.748 132.99ZM211.256 135.36C206.953 135.36 203.906 134.158 201.86 131.967L199.667 134.013C202.437 136.982 206.384 138.36 211.256 138.36V135.36ZM201.871 131.979C199.795 129.705 198.652 126.361 198.652 121.724H195.652C195.652 126.834 196.916 131 199.656 134.001L201.871 131.979ZM198.652 121.724V90.076H195.652V121.724H198.652ZM198.652 90.076C198.652 85.4365 199.796 82.1307 201.86 79.9195L199.667 77.8725C196.915 80.8213 195.652 84.9688 195.652 90.076H198.652ZM201.871 79.9074C203.919 77.6643 206.963 76.44 211.256 76.44V73.44C206.375 73.44 202.424 74.853 199.656 77.8846L201.871 79.9074ZM211.256 76.44C215.548 76.44 218.592 77.6643 220.64 79.9074L222.855 77.8846C220.087 74.853 216.136 73.44 211.256 73.44V76.44ZM220.651 79.9195C222.715 82.1307 223.86 85.4365 223.86 90.076H226.86C226.86 84.9688 225.596 80.8213 222.844 77.8725L220.651 79.9195ZM223.86 90.076V95.236H226.86V90.076H223.86ZM225.36 93.736H216.416V96.736H225.36V93.736ZM217.916 95.236V89.474H214.916V95.236H217.916ZM217.916 89.474C217.916 87.3271 217.478 85.4379 216.346 84.0682C215.17 82.6435 213.462 82.04 211.514 82.04V85.04C212.833 85.04 213.576 85.4255 214.034 85.9788C214.536 86.5871 214.916 87.6649 214.916 89.474H217.916ZM211.514 82.04C209.565 82.04 207.857 82.6435 206.681 84.0682C205.549 85.4379 205.112 87.3271 205.112 89.474H208.112C208.112 87.6649 208.491 86.5871 208.993 85.9788C209.451 85.4255 210.194 85.04 211.514 85.04V82.04ZM205.112 89.474V122.412H208.112V89.474H205.112ZM205.112 122.412C205.112 124.534 205.551 126.406 206.687 127.762C207.867 129.168 209.572 129.76 211.514 129.76V126.76C210.187 126.76 209.441 126.377 208.987 125.834C208.489 125.241 208.112 124.188 208.112 122.412H205.112ZM211.514 129.76C213.455 129.76 215.16 129.168 216.34 127.762C217.476 126.406 217.916 124.534 217.916 122.412H214.916C214.916 124.188 214.538 125.241 214.04 125.834C213.586 126.377 212.84 126.76 211.514 126.76V129.76ZM217.916 122.412V110.63H214.916V122.412H217.916ZM216.416 109.13H211.686V112.13H216.416V109.13ZM213.186 110.63V102.03H210.186V110.63H213.186ZM211.686 103.53H225.36V100.53H211.686V103.53ZM223.86 102.03V121.724H226.86V102.03H223.86ZM223.86 121.724C223.86 126.361 222.716 129.705 220.64 131.979L222.855 134.001C225.595 131 226.86 126.834 226.86 121.724H223.86ZM220.651 131.967C218.605 134.158 215.558 135.36 211.256 135.36V138.36C216.127 138.36 220.074 136.982 222.844 134.013L220.651 131.967ZM241.753 75.8V74.3H240.253V75.8H241.753ZM266.693 79.24L265.619 80.2871L265.626 80.2939L265.633 80.3007L266.693 79.24ZM268.499 99.622L267.174 98.9202L267.165 98.9356L267.158 98.9512L268.499 99.622ZM263.941 103.836L263.364 102.451L262.441 102.836V103.836H263.941ZM263.941 104.008H262.441V105.081L263.457 105.428L263.941 104.008ZM267.295 132.388L268.356 133.449L267.295 132.388ZM241.753 136H240.253V137.5H241.753V136ZM259.125 98.848L258.065 97.7873L258.049 97.8034L258.033 97.82L259.125 98.848ZM259.383 85.862L258.192 86.7732L258.208 86.7947L258.225 86.8156L259.383 85.862ZM251.213 84.4V82.9H249.713V84.4H251.213ZM251.213 100.31H249.713V101.81H251.213V100.31ZM260.329 126.11L261.426 127.133L261.442 127.116L261.458 127.098L260.329 126.11ZM260.071 110.544L258.924 111.51L258.951 111.543L258.981 111.574L260.071 110.544ZM251.213 108.91V107.41H249.713V108.91H251.213ZM251.213 127.4H249.713V128.9H251.213V127.4ZM241.753 77.3H256.029V74.3H241.753V77.3ZM256.029 77.3C260.706 77.3 263.784 78.4044 265.619 80.2871L267.767 78.1928C265.131 75.4889 261.099 74.3 256.029 74.3V77.3ZM265.633 80.3007C267.476 82.1437 268.547 85.1505 268.547 89.646H271.547C271.547 84.7389 270.383 80.8083 267.754 78.1793L265.633 80.3007ZM268.547 89.646V92.054H271.547V89.646H268.547ZM268.547 92.054C268.547 94.9984 268.054 97.2566 267.174 98.9202L269.825 100.324C271.008 98.0887 271.547 95.3016 271.547 92.054H268.547ZM267.158 98.9512C266.348 100.569 265.105 101.726 263.364 102.451L264.518 105.221C266.905 104.226 268.701 102.573 269.841 100.293L267.158 98.9512ZM262.441 103.836V104.008H265.441V103.836H262.441ZM263.457 105.428C265.471 106.115 266.935 107.327 267.922 109.086C268.931 110.881 269.493 113.339 269.493 116.564H272.493C272.493 113.024 271.881 110.007 270.538 107.616C269.175 105.19 267.113 103.506 264.426 102.588L263.457 105.428ZM269.493 116.564V121.724H272.493V116.564H269.493ZM269.493 121.724C269.493 126.107 268.335 129.227 266.235 131.327L268.356 133.449C271.186 130.618 272.493 126.629 272.493 121.724H269.493ZM266.235 131.327C264.201 133.361 261.089 134.5 256.631 134.5V137.5C261.576 137.5 265.574 136.231 268.356 133.449L266.235 131.327ZM256.631 134.5H241.753V137.5H256.631V134.5ZM243.253 136V75.8H240.253V136H243.253ZM254.911 101.81C257.042 101.81 258.916 101.259 260.218 99.876L258.033 97.82C257.5 98.3863 256.564 98.81 254.911 98.81V101.81ZM260.186 99.9087C261.58 98.5151 262.087 96.3873 262.087 93.946H259.087C259.087 96.0914 258.62 97.2316 258.065 97.7873L260.186 99.9087ZM262.087 93.946V90.592H259.087V93.946H262.087ZM262.087 90.592C262.087 88.2942 261.676 86.2869 260.541 84.9084L258.225 86.8156C258.696 87.3864 259.087 88.5324 259.087 90.592H262.087ZM260.575 84.9508C259.453 83.4833 257.723 82.9 255.771 82.9V85.9C257.145 85.9 257.823 86.2914 258.192 86.7732L260.575 84.9508ZM255.771 82.9H251.213V85.9H255.771V82.9ZM249.713 84.4V100.31H252.713V84.4H249.713ZM251.213 101.81H254.911V98.81H251.213V101.81ZM256.631 128.9C258.534 128.9 260.238 128.406 261.426 127.133L259.233 125.087C258.815 125.534 258.054 125.9 256.631 125.9V128.9ZM261.458 127.098C262.628 125.761 263.033 123.751 263.033 121.466H260.033C260.033 123.539 259.636 124.624 259.2 125.122L261.458 127.098ZM263.033 121.466V116.22H260.033V121.466H263.033ZM263.033 116.22C263.033 113.399 262.556 110.99 261.162 109.514L258.981 111.574C259.536 112.162 260.033 113.537 260.033 116.22H263.033ZM261.219 109.578C259.893 108.003 257.812 107.41 255.427 107.41V110.41C257.4 110.41 258.415 110.906 258.924 111.51L261.219 109.578ZM255.427 107.41H251.213V110.41H255.427V107.41ZM249.713 108.91V127.4H252.713V108.91H249.713ZM251.213 128.9H256.631V125.9H251.213V128.9ZM294.153 75.8V74.3H292.877L292.672 75.5589L294.153 75.8ZM306.967 75.8L308.447 75.5589L308.242 74.3H306.967V75.8ZM316.771 136V137.5H318.535L318.251 135.759L316.771 136ZM307.311 136L305.826 136.214L306.011 137.5H307.311V136ZM305.591 124.046L307.076 123.832L304.091 124.046H305.591ZM305.591 124.218V125.718H307.091V124.218H305.591ZM294.841 124.218V122.718H293.544L293.357 124.001L294.841 124.218ZM293.121 136V137.5H294.418L294.605 136.217L293.121 136ZM284.349 136L282.868 135.759L282.585 137.5H284.349V136ZM304.473 116.048V117.548H306.2L305.958 115.838L304.473 116.048ZM300.259 86.292L301.744 86.0817L301.561 84.792H300.259V86.292ZM300.087 86.292V84.792H298.781L298.601 86.0859L300.087 86.292ZM295.959 116.048L294.473 115.842L294.236 117.548H295.959V116.048ZM294.153 77.3H306.967V74.3H294.153V77.3ZM305.486 76.0411L315.29 136.241L318.251 135.759L308.447 75.5589L305.486 76.0411ZM316.771 134.5H307.311V137.5H316.771V134.5ZM308.796 135.786L307.076 123.832L304.106 124.26L305.826 136.214L308.796 135.786ZM304.091 124.046V124.218H307.091V124.046H304.091ZM305.591 122.718H294.841V125.718H305.591V122.718ZM293.357 124.001L291.637 135.783L294.605 136.217L296.325 124.435L293.357 124.001ZM293.121 134.5H284.349V137.5H293.121V134.5ZM285.829 136.241L295.633 76.0411L292.672 75.5589L282.868 135.759L285.829 136.241ZM305.958 115.838L301.744 86.0817L298.774 86.5023L302.988 116.258L305.958 115.838ZM300.259 84.792H300.087V87.792H300.259V84.792ZM298.601 86.0859L294.473 115.842L297.445 116.254L301.573 86.4981L298.601 86.0859ZM295.959 117.548H304.473V114.548H295.959V117.548ZM330.124 127.572L328.735 127.007L328.624 127.279V127.572H330.124ZM347.668 84.4L349.058 84.9647L349.897 82.9H347.668V84.4ZM330.984 84.4H329.484V85.9H330.984V84.4ZM330.984 75.8V74.3H329.484V75.8H330.984ZM357.816 75.8H359.316V74.3H357.816V75.8ZM357.816 84.228L359.206 84.7927L359.316 84.5211V84.228H357.816ZM340.272 127.4L338.883 126.835L338.044 128.9H340.272V127.4ZM357.816 127.4H359.316V125.9H357.816V127.4ZM357.816 136V137.5H359.316V136H357.816ZM330.124 136H328.624V137.5H330.124V136ZM331.514 128.137L349.058 84.9647L346.279 83.8353L328.735 127.007L331.514 128.137ZM347.668 82.9H330.984V85.9H347.668V82.9ZM332.484 84.4V75.8H329.484V84.4H332.484ZM330.984 77.3H357.816V74.3H330.984V77.3ZM356.316 75.8V84.228H359.316V75.8H356.316ZM356.427 83.6633L338.883 126.835L341.662 127.965L359.206 84.7927L356.427 83.6633ZM340.272 128.9H357.816V125.9H340.272V128.9ZM356.316 127.4V136H359.316V127.4H356.316ZM357.816 134.5H330.124V137.5H357.816V134.5ZM331.624 136V127.572H328.624V136H331.624ZM380.805 75.8V74.3H379.529L379.324 75.5589L380.805 75.8ZM393.618 75.8L395.099 75.5589L394.894 74.3H393.618V75.8ZM403.423 136V137.5H405.187L404.903 135.759L403.423 136ZM393.962 136L392.478 136.214L392.663 137.5H393.962V136ZM392.242 124.046L393.727 123.832L390.742 124.046H392.242ZM392.242 124.218V125.718H393.742V124.218H392.242ZM381.492 124.218V122.718H380.196L380.008 124.001L381.492 124.218ZM379.772 136V137.5H381.069L381.257 136.217L379.772 136ZM371.001 136L369.52 135.759L369.236 137.5H371.001V136ZM391.125 116.048V117.548H392.852L392.61 115.838L391.125 116.048ZM386.91 86.292L388.396 86.0817L388.213 84.792H386.91V86.292ZM386.738 86.292V84.792H385.432L385.253 86.0859L386.738 86.292ZM382.611 116.048L381.125 115.842L380.888 117.548H382.611V116.048ZM380.805 77.3H393.618V74.3H380.805V77.3ZM392.138 76.0411L401.942 136.241L404.903 135.759L395.099 75.5589L392.138 76.0411ZM403.423 134.5H393.962V137.5H403.423V134.5ZM395.447 135.786L393.727 123.832L390.758 124.26L392.478 136.214L395.447 135.786ZM390.742 124.046V124.218H393.742V124.046H390.742ZM392.242 122.718H381.492V125.718H392.242V122.718ZM380.008 124.001L378.288 135.783L381.257 136.217L382.977 124.435L380.008 124.001ZM379.772 134.5H371.001V137.5H379.772V134.5ZM372.481 136.241L382.285 76.0411L379.324 75.5589L369.52 135.759L372.481 136.241ZM392.61 115.838L388.396 86.0817L385.425 86.5023L389.639 116.258L392.61 115.838ZM386.91 84.792H386.738V87.792H386.91V84.792ZM385.253 86.0859L381.125 115.842L384.096 116.254L388.224 86.4981L385.253 86.0859ZM382.611 117.548H391.125V114.548H382.611V117.548ZM426.062 75.8V74.3H424.787L424.582 75.5589L426.062 75.8ZM438.876 75.8L440.357 75.5589L440.151 74.3H438.876V75.8ZM448.68 136V137.5H450.444L450.161 135.759L448.68 136ZM439.22 136L437.735 136.214L437.92 137.5H439.22V136ZM437.5 124.046L438.985 123.832L436 124.046H437.5ZM437.5 124.218V125.718H439V124.218H437.5ZM426.75 124.218V122.718H425.453L425.266 124.001L426.75 124.218ZM425.03 136V137.5H426.327L426.514 136.217L425.03 136ZM416.258 136L414.778 135.759L414.494 137.5H416.258V136ZM436.382 116.048V117.548H438.109L437.867 115.838L436.382 116.048ZM432.168 86.292L433.653 86.0817L433.471 84.792H432.168V86.292ZM431.996 86.292V84.792H430.69L430.51 86.0859L431.996 86.292ZM427.868 116.048L426.382 115.842L426.146 117.548H427.868V116.048ZM426.062 77.3H438.876V74.3H426.062V77.3ZM437.396 76.0411L447.2 136.241L450.161 135.759L440.357 75.5589L437.396 76.0411ZM448.68 134.5H439.22V137.5H448.68V134.5ZM440.705 135.786L438.985 123.832L436.015 124.26L437.735 136.214L440.705 135.786ZM436 124.046V124.218H439V124.046H436ZM437.5 122.718H426.75V125.718H437.5V122.718ZM425.266 124.001L423.546 135.783L426.514 136.217L428.234 124.435L425.266 124.001ZM425.03 134.5H416.258V137.5H425.03V134.5ZM417.738 136.241L427.543 76.0411L424.582 75.5589L414.778 135.759L417.738 136.241ZM437.867 115.838L433.653 86.0817L430.683 86.5023L434.897 116.258L437.867 115.838ZM432.168 84.792H431.996V87.792H432.168V84.792ZM430.51 86.0859L426.382 115.842L429.354 116.254L433.482 86.4981L430.51 86.0859ZM427.868 117.548H436.382V114.548H427.868V117.548ZM463.59 75.8V74.3H462.09V75.8H463.59ZM488.272 79.24L487.198 80.2871L487.204 80.2939L487.211 80.3007L488.272 79.24ZM485.434 105.212L484.873 103.821L483.934 104.199V105.212H485.434ZM485.434 105.384H483.934V106.5L485.003 106.821L485.434 105.384ZM490.25 109.598L488.873 110.193L488.88 110.209L488.887 110.224L490.25 109.598ZM491.884 132.904L490.392 133.061L490.393 133.07L491.884 132.904ZM492.744 136V137.5H495.052L494.114 135.391L492.744 136ZM483.112 136L481.697 136.499L482.05 137.5H483.112V136ZM480.876 111.834L479.698 112.763L479.713 112.782L479.728 112.8L480.876 111.834ZM473.05 110.2V108.7H471.55V110.2H473.05ZM473.05 136V137.5H474.55V136H473.05ZM463.59 136H462.09V137.5H463.59V136ZM480.704 100.138L479.643 99.0773L479.627 99.0934L479.611 99.11L480.704 100.138ZM480.962 85.862L479.77 86.7732L479.786 86.7947L479.804 86.8156L480.962 85.862ZM473.05 84.4V82.9H471.55V84.4H473.05ZM473.05 101.6H471.55V103.1H473.05V101.6ZM463.59 77.3H477.608V74.3H463.59V77.3ZM477.608 77.3C482.285 77.3 485.362 78.4044 487.198 80.2871L489.346 78.1928C486.709 75.4889 482.677 74.3 477.608 74.3V77.3ZM487.211 80.3007C489.054 82.1437 490.126 85.1505 490.126 89.646H493.126C493.126 84.7389 491.961 80.8083 489.332 78.1793L487.211 80.3007ZM490.126 89.646V93.344H493.126V89.646H490.126ZM490.126 93.344C490.126 96.3183 489.632 98.6088 488.748 100.304C487.88 101.966 486.605 103.123 484.873 103.821L485.994 106.603C488.39 105.638 490.211 103.986 491.407 101.692C492.587 99.4312 493.126 96.6191 493.126 93.344H490.126ZM483.934 105.212V105.384H486.934V105.212H483.934ZM485.003 106.821C486.889 107.387 488.138 108.495 488.873 110.193L491.626 109.003C490.526 106.459 488.564 104.757 485.865 103.947L485.003 106.821ZM488.887 110.224C489.736 112.074 490.212 114.671 490.212 118.112H493.212C493.212 114.443 492.712 111.365 491.613 108.972L488.887 110.224ZM490.212 118.112V128.69H493.212V118.112H490.212ZM490.212 128.69C490.212 130.437 490.27 131.899 490.392 133.061L493.375 132.747C493.268 131.73 493.212 130.383 493.212 128.69H490.212ZM490.393 133.07C490.526 134.268 490.857 135.449 491.373 136.609L494.114 135.391C493.713 134.487 493.471 133.604 493.374 132.738L490.393 133.07ZM492.744 134.5H483.112V137.5H492.744V134.5ZM484.526 135.501C484.21 134.606 484.009 133.79 483.91 133.05L480.937 133.446C481.067 134.426 481.325 135.445 481.697 136.499L484.526 135.501ZM483.91 133.05C483.811 132.301 483.752 130.845 483.752 128.604H480.752C480.752 130.835 480.807 132.475 480.937 133.446L483.91 133.05ZM483.752 128.604V117.596H480.752V128.604H483.752ZM483.752 117.596C483.752 114.775 483.301 112.386 482.023 110.868L479.728 112.8C480.285 113.461 480.752 114.913 480.752 117.596H483.752ZM482.053 110.905C480.778 109.289 478.692 108.7 476.318 108.7V111.7C478.301 111.7 479.254 112.2 479.698 112.763L482.053 110.905ZM476.318 108.7H473.05V111.7H476.318V108.7ZM471.55 110.2V136H474.55V110.2H471.55ZM473.05 134.5H463.59V137.5H473.05V134.5ZM465.09 136V75.8H462.09V136H465.09ZM476.49 103.1C478.621 103.1 480.494 102.549 481.796 101.166L479.611 99.11C479.078 99.6763 478.143 100.1 476.49 100.1V103.1ZM481.764 101.199C483.158 99.8051 483.666 97.6773 483.666 95.236H480.666C480.666 97.3814 480.199 98.5216 479.643 99.0773L481.764 101.199ZM483.666 95.236V90.592H480.666V95.236H483.666ZM483.666 90.592C483.666 88.2942 483.255 86.2869 482.12 84.9084L479.804 86.8156C480.274 87.3864 480.666 88.5324 480.666 90.592H483.666ZM482.153 84.9508C481.031 83.4833 479.301 82.9 477.35 82.9V85.9C478.723 85.9 479.402 86.2914 479.77 86.7732L482.153 84.9508ZM477.35 82.9H473.05V85.9H477.35V82.9ZM471.55 84.4V101.6H474.55V84.4H471.55ZM473.05 103.1H476.49V100.1H473.05V103.1Z" fill="#EB363D"/>
</svg>
