<svg width="706" height="233" viewBox="0 0 706 233" fill="none" xmlns="http://www.w3.org/2000/svg">
<rect width="706" height="233" fill="#F7F7F7"/>
<rect x="40" y="34" width="626" height="165" stroke="#8467AA" stroke-width="12"/>
<path d="M88.485 84.5H102.595C107.412 84.5 110.925 85.6333 113.135 87.9C115.345 90.11 116.45 93.5383 116.45 98.185V100.565C116.45 103.625 115.94 106.118 114.92 108.045C113.957 109.972 112.455 111.36 110.415 112.21V112.38C115.062 113.967 117.385 118.103 117.385 124.79V129.89C117.385 134.48 116.167 137.993 113.73 140.43C111.35 142.81 107.837 144 103.19 144H88.485V84.5ZM101.49 108.725C103.36 108.725 104.748 108.243 105.655 107.28C106.618 106.317 107.1 104.702 107.1 102.435V99.12C107.1 96.9667 106.703 95.4083 105.91 94.445C105.173 93.4817 103.983 93 102.34 93H97.835V108.725H101.49ZM103.19 135.5C104.833 135.5 106.052 135.075 106.845 134.225C107.638 133.318 108.035 131.788 108.035 129.635V124.45C108.035 121.73 107.553 119.86 106.59 118.84C105.683 117.763 104.153 117.225 102 117.225H97.835V135.5H103.19ZM137.757 118.67L126.452 84.5H136.397L142.772 106.345H142.942L149.317 84.5H158.412L147.107 118.67V144H137.757V118.67ZM182.04 144.85C177.507 144.85 174.05 143.575 171.67 141.025C169.29 138.418 168.1 134.707 168.1 129.89V98.61C168.1 93.7933 169.29 90.11 171.67 87.56C174.05 84.9533 177.507 83.65 182.04 83.65C186.573 83.65 190.03 84.9533 192.41 87.56C194.79 90.11 195.98 93.7933 195.98 98.61V103.71H187.14V98.015C187.14 94.105 185.525 92.15 182.295 92.15C179.065 92.15 177.45 94.105 177.45 98.015V130.57C177.45 134.423 179.065 136.35 182.295 136.35C185.525 136.35 187.14 134.423 187.14 130.57V118.925H182.465V110.425H195.98V129.89C195.98 134.707 194.79 138.418 192.41 141.025C190.03 143.575 186.573 144.85 182.04 144.85ZM222.893 144.85C218.36 144.85 214.903 143.575 212.523 141.025C210.143 138.418 208.953 134.707 208.953 129.89V98.61C208.953 93.7933 210.143 90.11 212.523 87.56C214.903 84.9533 218.36 83.65 222.893 83.65C227.427 83.65 230.883 84.9533 233.263 87.56C235.643 90.11 236.833 93.7933 236.833 98.61V103.71H227.993V98.015C227.993 94.105 226.378 92.15 223.148 92.15C219.918 92.15 218.303 94.105 218.303 98.015V130.57C218.303 134.423 219.918 136.35 223.148 136.35C226.378 136.35 227.993 134.423 227.993 130.57V118.925H223.318V110.425H236.833V129.89C236.833 134.707 235.643 138.418 233.263 141.025C230.883 143.575 227.427 144.85 222.893 144.85ZM250.486 84.5H264.596C269.413 84.5 272.926 85.6333 275.136 87.9C277.346 90.11 278.451 93.5383 278.451 98.185V100.565C278.451 103.625 277.941 106.118 276.921 108.045C275.958 109.972 274.456 111.36 272.416 112.21V112.38C277.063 113.967 279.386 118.103 279.386 124.79V129.89C279.386 134.48 278.168 137.993 275.731 140.43C273.351 142.81 269.838 144 265.191 144H250.486V84.5ZM263.491 108.725C265.361 108.725 266.75 108.243 267.656 107.28C268.62 106.317 269.101 104.702 269.101 102.435V99.12C269.101 96.9667 268.705 95.4083 267.911 94.445C267.175 93.4817 265.985 93 264.341 93H259.836V108.725H263.491ZM265.191 135.5C266.835 135.5 268.053 135.075 268.846 134.225C269.64 133.318 270.036 131.788 270.036 129.635V124.45C270.036 121.73 269.555 119.86 268.591 118.84C267.685 117.763 266.155 117.225 264.001 117.225H259.836V135.5H265.191ZM299.727 84.5H312.392L322.082 144H312.732L311.032 132.185V132.355H300.407L298.707 144H290.037L299.727 84.5ZM309.927 124.28L305.762 94.87H305.592L301.512 124.28H309.927ZM332.73 135.67L350.07 93H333.58V84.5H360.1V92.83L342.76 135.5H360.1V144H332.73V135.67ZM380.271 84.5H392.936L402.626 144H393.276L391.576 132.185V132.355H380.951L379.251 144H370.581L380.271 84.5ZM390.471 124.28L386.306 94.87H386.136L382.056 124.28H390.471ZM422.452 84.5H435.117L444.807 144H435.457L433.757 132.185V132.355H423.132L421.432 144H412.762L422.452 84.5ZM432.652 124.28L428.487 94.87H428.317L424.237 124.28H432.652ZM456.993 84.5H470.848C475.665 84.5 479.178 85.6333 481.388 87.9C483.598 90.11 484.703 93.5383 484.703 98.185V101.84C484.703 108.017 482.663 111.927 478.583 113.57V113.74C480.85 114.42 482.437 115.808 483.343 117.905C484.307 120.002 484.788 122.807 484.788 126.32V136.775C484.788 138.475 484.845 139.863 484.958 140.94C485.072 141.96 485.355 142.98 485.808 144H476.288C475.948 143.037 475.722 142.13 475.608 141.28C475.495 140.43 475.438 138.9 475.438 136.69V125.81C475.438 123.09 474.985 121.192 474.078 120.115C473.228 119.038 471.727 118.5 469.573 118.5H466.343V144H456.993V84.5ZM469.743 110C471.613 110 473.002 109.518 473.908 108.555C474.872 107.592 475.353 105.977 475.353 103.71V99.12C475.353 96.9667 474.957 95.4083 474.163 94.445C473.427 93.4817 472.237 93 470.593 93H466.343V110H469.743Z" fill="#EB363D"/>
<path d="M626.863 91.8223C625.718 90.7415 624.576 89.6432 623.435 88.5264C623.288 88.3435 623.021 88.3112 622.835 88.4544C620.98 89.4627 619.113 90.4476 617.252 91.4559H617.252C617.111 91.5334 616.99 91.6422 616.898 91.7741C615.619 93.671 614.317 95.5499 613.086 97.471C612.062 99.0748 610.833 100.538 609.43 101.823C607.467 103.624 605.588 105.509 603.674 107.358C603.073 107.911 602.527 108.457 601.957 108.997L605.595 112.515L605.715 112.389C608.2 110.011 610.673 107.61 613.17 105.209C613.937 104.405 614.775 103.672 615.673 103.018C618.038 101.463 620.476 100.017 622.877 98.5279V98.5275C623.265 98.324 623.603 98.0372 623.868 97.6871C624.924 95.9465 625.915 94.1635 626.941 92.4044V92.4048C627.011 92.3185 627.043 92.2067 627.028 92.0966C627.013 91.9861 626.954 91.8868 626.863 91.8223L626.863 91.8223Z" fill="#EB363D"/>
<path d="M623.556 133.357C621.651 131.497 619.74 129.644 617.823 127.799C616.082 126.118 614.335 124.449 612.6 122.768L605.673 116.051L605.529 115.907L605.318 115.714C604.484 114.928 603.656 114.136 602.833 113.313C602.011 112.491 601.183 111.723 600.366 110.913L599.652 110.204L599.562 110.114C596.728 107.373 593.893 104.635 591.055 101.902C590.757 101.636 590.596 101.25 590.617 100.851C590.617 97.4473 590.617 94.0439 590.575 90.6463C590.575 90.2142 590.713 89.656 590.491 89.3855C590.269 89.1154 589.651 89.1217 589.218 89.0015L588.979 88.9353C586.457 88.2813 583.954 87.6327 581.45 86.9786C580.25 86.6666 579.05 86.3241 577.848 86H577.651L576.21 87.2788L583.156 93.8823L576.42 100.341L569.571 93.6839C569.103 94.1763 568.694 94.5724 568.334 95.0104C568.269 95.1683 568.269 95.3454 568.334 95.5029C569.107 98.3361 569.889 101.172 570.682 104.009C571.006 105.21 571.342 106.356 571.684 107.575H572.242H583.348C583.656 107.562 583.954 107.685 584.164 107.911C587.177 110.836 590.197 113.758 593.222 116.675L595.623 119.022L597.826 121.147L599.693 122.948L604.651 127.751C609.17 132.085 613.662 136.413 618.128 140.736C618.807 141.416 619.661 141.896 620.595 142.122C621.509 142.336 622.467 142.271 623.344 141.935C624.22 141.599 624.975 141.007 625.512 140.237C626.031 139.48 626.288 138.574 626.244 137.657C626.2 136.739 625.856 135.862 625.266 135.159C624.737 134.522 624.149 133.934 623.555 133.358L623.556 133.357Z" fill="#EB363D"/>
<path d="M595.965 122.215L594.164 120.462L591.379 117.815C589.258 117.373 587.055 117.999 585.484 119.49L568.886 135.44C567.682 136.585 567 138.173 567 139.834C567 141.495 567.682 143.084 568.886 144.228C570.119 145.391 571.75 146.039 573.445 146.039C575.14 146.039 576.771 145.391 578.004 144.228L594.621 128.242C596.129 126.791 596.783 124.665 596.349 122.617L595.965 122.215Z" fill="#EB363D"/>
<line x1="527" y1="61" x2="527" y2="172" stroke="#8467AA" stroke-width="12"/>
</svg>
